<svg id="Layer_1" data-name="Layer 1" xmlns="http://www.w3.org/2000/svg" viewBox="0 0 204 204">
  <rect width="204" height="204"/>
  <path d="M992.51,570.87a37.68,37.68,0,0,1-6.79,13.35,28.42,28.42,0,0,1-10.86,8.28,36.26,36.26,0,0,1-14.7,2.82,37,37,0,0,1-14.71-2.76,28.21,28.21,0,0,1-11-8.3,37,37,0,0,1-6.89-13.34,64.13,64.13,0,0,1-2.38-18.22l0-25.2a64.23,64.23,0,0,1,2.35-18.22,37.72,37.72,0,0,1,6.86-13.42,28.9,28.9,0,0,1,10.9-8.33,39.52,39.52,0,0,1,29.42,0,29.3,29.3,0,0,1,11,8.31,38.35,38.35,0,0,1,6.81,13.41,64.1,64.1,0,0,1,2.38,18.21l0,25.21A63.87,63.87,0,0,1,992.51,570.87Zm-11.72-53.1a39.75,39.75,0,0,0-2.12-9.42,19.81,19.81,0,0,0-4.1-6.83,15.7,15.7,0,0,0-6.18-4.21,23.66,23.66,0,0,0-8.46-1.4,22.74,22.74,0,0,0-8.61,1.52,17,17,0,0,0-6.32,4.41,23.23,23.23,0,0,0-4.61,9.35,51.74,51.74,0,0,0-1.5,13.27v21.73c0,1.23,0,2.49,0,3.77Zm.31,22.55v-4.25c0-2.1,0-3.83,0-5.22l-41.8,32a36.09,36.09,0,0,0,2.37,9.5,19.88,19.88,0,0,0,4.44,6.76,16.47,16.47,0,0,0,6.06,3.8,23.29,23.29,0,0,0,8,1.29,22.86,22.86,0,0,0,8.27-1.42,16.39,16.39,0,0,0,6.14-4.07,22,22,0,0,0,5-9.46,52.76,52.76,0,0,0,1.57-13.75Z" transform="translate(-858 -438)" style="fill: #fff"/>
</svg>
