<svg id="Layer_1" data-name="Layer 1" xmlns="http://www.w3.org/2000/svg" viewBox="0 0 180 44.27">
  <g>
    <g style="isolation: isolate">
      <text transform="translate(55.84 18.81) scale(0.88 1)" style="isolation: isolate;font-size: 21.619016647338867px;fill: #ef4444;font-family: PermanentMarker-Regular, Permanent Marker">It’s th</text>
      <text transform="translate(114.61 18.81) scale(0.88 1)" style="isolation: isolate;font-size: 21.619016647338867px;fill: #ef4444;font-family: PermanentMarker-Regular, Permanent Marker;letter-spacing: -0.049996591157244474em">a</text>
      <text transform="translate(124.71 18.81) scale(0.88 1)" style="isolation: isolate;font-size: 21.619016647338867px;fill: #ef4444;font-family: PermanentMarker-Regular, Permanent Marker">t e</text>
      <text transform="translate(150.8 18.81) scale(0.88 1)" style="isolation: isolate;font-size: 21.619016647338867px;fill: #ef4444;font-family: PermanentMarker-Regular, Permanent Marker;letter-spacing: -0.020019168943865857em">a</text>
      <text transform="translate(161.48 18.81) scale(0.88 1)" style="isolation: isolate;font-size: 21.619016647338867px;fill: #ef4444;font-family: PermanentMarker-Regular, Permanent Marker">sy</text>
    </g>
    <path d="M12.79,47.13c-1.91-.15-.88-2.11-.53-3.31.65-1.89,1.39-3.75,2-5.66.67-1.65,3.45-12.17,5-11.77a.6.6,0,0,1,.27.8l0,.08c-.89,2.66-1.43,5.41-2.08,8.13,9-12.51,19.74-18.79,34.12-20.83h.12l.53-.08h.15a26.17,26.17,0,0,1,8.47,0c.76.16,2.58.12,2.84,1a19.42,19.42,0,0,0-2.85-.12h0a52.32,52.32,0,0,0-26.2,7.73C27.66,28,21.24,34,16.82,41.58c1.57-1.19,3.11-2.42,4.7-3.54.89-.55,2.17-1.59,2.93-.42.54.88-.12,1.68-.88,2.18-.81.68-1.68,1.25-2.54,1.84C19,43.1,16.86,44.52,14.83,46A6.35,6.35,0,0,1,12.79,47.13Z" transform="translate(-11.67 -2.86)" style="fill: #ef4444"/>
  </g>
</svg>
